<svg width="28" height="28" xmlns="http://www.w3.org/2000/svg">
    <g>
        <rect fill="#ff8908" rx="6" height="28" width="28"/>
        <svg viewBox="0 0 1024 1024" width="22" height="22" x="3" y="3">
            <path d="M238.933333 102.4v687.829333h720.042667v68.266667H170.666667V102.4z" fill="#ffffff"></path>
            <path d="M762.709333 952.405333V264.533333L42.666667 264.533333V196.266667h788.309333v756.138666z"
                  fill="#ffffff"></path>
            <path d="M682.666667 341.333333v375.466667H307.2V341.333333H682.666667z m-307.285334 266.624L327.082667 656.213333a34.133333 34.133333 0 1 0 48.298666 48.256l48.213334-48.213333a34.133333 34.133333 0 0 0-48.213334-48.298667z m144.810667-144.810666l-48.298667 48.256a34.133333 34.133333 0 0 0 48.298667 48.256l48.256-48.256a34.133333 34.133333 0 1 0-48.256-48.256z"
                  fill="#ffffff"></path>
            <path d="M230.528 849.322667l48.298667-48.298667a34.133333 34.133333 0 1 0-48.298667-48.256l-48.256 48.256a34.133333 34.133333 0 0 0 48.256 48.298667zM665.002667 414.848l48.256-48.256a34.133333 34.133333 0 0 0-48.256-48.298667l-48.298667 48.298667a34.133333 34.133333 0 1 0 48.298667 48.256zM809.813333 270.08l48.256-48.256a34.133333 34.133333 0 1 0-48.256-48.298667l-48.298666 48.298667a34.133333 34.133333 0 0 0 48.298666 48.256z"
                  fill="#ffffff"></path>
        </svg>
    </g>
</svg>